<svg width="16" height="16" viewBox="0 0 16 16" fill="none" xmlns="http://www.w3.org/2000/svg">
<path d="M5.94023 13.7796C5.81356 13.7796 5.68689 13.733 5.58689 13.633C5.39356 13.4396 5.39356 13.1196 5.58689 12.9263L9.93356 8.57965C10.2536 8.25965 10.2536 7.73965 9.93356 7.41965L5.58689 3.07298C5.39356 2.87965 5.39356 2.55965 5.58689 2.36631C5.78023 2.17298 6.10023 2.17298 6.29356 2.36631L10.6402 6.71298C10.9802 7.05298 11.1736 7.51298 11.1736 7.99965C11.1736 8.48631 10.9869 8.94631 10.6402 9.28631L6.29356 13.633C6.19356 13.7263 6.06689 13.7796 5.94023 13.7796Z" fill="#647184"/>
</svg>
