<svg width="88" height="32" viewBox="0 0 88 32" fill="none" xmlns="http://www.w3.org/2000/svg">
<path fill-rule="evenodd" clip-rule="evenodd" d="M10.1079 0C15.6895 0 20.214 4.42328 20.214 9.88011C20.214 15.3369 15.6913 19.7602 10.1079 19.7602C4.52444 19.7602 0 15.3369 0 9.88011C0 4.42328 4.52624 0 10.1079 0ZM10.2606 16.8208C10.379 16.2058 10.4926 15.6159 10.6024 15.0409V15.0426C10.8636 15.03 11.1161 15.0233 11.3619 15.0169C11.897 15.0029 12.4007 14.9897 12.8942 14.9165C14.1449 14.7308 14.9298 13.9092 15.1896 12.6462C15.4333 11.455 15.1197 10.7998 13.9478 10.0413C13.9309 10.0292 13.9225 10.0053 13.9106 9.97134C13.9036 9.95131 13.8953 9.92779 13.8833 9.90113C14.9459 9.4807 15.2971 8.61882 15.2469 7.58701C15.1968 6.55345 14.4657 6.0069 13.5877 5.60924C13.3478 5.50046 13.1012 5.40335 12.8388 5.30008C12.721 5.25368 12.5999 5.20603 12.4749 5.15552C12.5043 5.00196 12.5334 4.84944 12.5623 4.69798C12.6782 4.0909 12.791 3.50066 12.9014 2.92724C12.6765 2.88608 12.4664 2.84754 12.2563 2.809C12.0462 2.77046 11.8361 2.73192 11.6112 2.69075C11.4679 3.44402 11.3335 4.14474 11.192 4.88049C11.0324 4.85104 10.8853 4.82412 10.7378 4.7971C10.5606 4.76466 10.3827 4.73208 10.1813 4.6948C10.2663 4.2482 10.3512 3.80539 10.4349 3.36862C10.4908 3.07727 10.5461 2.7886 10.6006 2.50331C10.0918 2.41046 9.65991 2.33163 9.17253 2.24229C9.02559 3.01308 8.88762 3.73307 8.7371 4.51437C8.59373 4.48818 8.45185 4.46227 8.31118 4.43658C7.59572 4.30593 6.91166 4.18101 6.22133 4.05365C6.12995 4.53714 6.04932 4.95757 5.95972 5.4218C6.0413 5.43699 6.11973 5.45192 6.19588 5.46643C6.40074 5.50544 6.5892 5.54133 6.7786 5.5707C7.33946 5.65654 7.54373 5.97361 7.44159 6.50791C7.41041 6.66951 7.37921 6.83112 7.34801 6.99274C7.03319 8.62352 6.71809 10.2557 6.41486 11.8894C6.33781 12.3028 6.1192 12.4044 5.72141 12.3501C4.81152 12.2258 4.80756 12.2363 4.49438 13.0621L4.49398 13.0631C4.44406 13.1933 4.40439 13.328 4.35718 13.4884C4.33323 13.5698 4.30733 13.6578 4.27717 13.7551C4.85988 13.8626 5.4189 13.9649 5.98667 14.0688C6.28836 14.124 6.59253 14.1797 6.90403 14.2368L6.4704 16.5001C6.53717 16.5123 6.60275 16.5243 6.66747 16.5362C7.08559 16.6126 7.46787 16.6825 7.90389 16.7629C8.01124 16.2001 8.11557 15.656 8.21689 15.1276C8.25087 14.9504 8.28451 14.775 8.31781 14.6012C8.54076 14.6416 8.73599 14.6775 8.93435 14.7139C9.0628 14.7376 9.19256 14.7614 9.332 14.7869C9.18865 15.5296 9.05426 16.2304 8.91808 16.9433C9.28838 17.0106 9.61684 17.0708 9.95912 17.1336C10.0359 17.1477 10.1133 17.1619 10.1921 17.1763C10.2151 17.0569 10.2379 16.9384 10.2606 16.8208ZM8.92167 11.5452C9.01395 11.0643 9.10623 10.5835 9.20478 10.0693V10.0676C9.46748 10.1444 9.72983 10.215 9.9904 10.2852C10.5616 10.439 11.1242 10.5905 11.6632 10.7998C12.3656 11.0731 12.6398 11.6354 12.5179 12.2205C12.4015 12.7828 11.9786 13.17 11.2152 13.1857C10.6312 13.1991 10.0453 13.1451 9.44465 13.0896C9.17923 13.0652 8.91091 13.0404 8.63855 13.0211C8.7371 12.5069 8.82939 12.0261 8.92167 11.5452ZM9.42193 8.90088C9.65037 8.91585 9.87307 8.93502 10.0918 8.95385C10.5644 8.99453 11.0183 9.03362 11.4715 9.02523C12.1578 9.01297 12.5753 8.65035 12.6774 8.11956C12.7813 7.57825 12.5376 7.05797 11.932 6.81622C11.491 6.64107 11.0281 6.51901 10.5531 6.39376C10.3487 6.33988 10.1421 6.28541 9.93407 6.22587C9.81622 6.83801 9.70944 7.3968 9.59745 7.98288C9.54097 8.27849 9.48315 8.58104 9.42193 8.90088Z" fill="#002859"/>
<path d="M21.3303 4.26206C21.3303 3.19171 22.2136 2.36487 23.5593 2.36487C24.905 2.36487 25.7884 3.13391 25.7884 4.206C25.7884 5.33241 24.905 6.15925 23.5593 6.15925C22.2136 6.15925 21.3303 5.33241 21.3303 4.26206ZM21.7334 7.28565H25.3834V17.4653H21.7334V7.28565Z" fill="#002859"/>
<path d="M34.4521 17.0519C33.8177 17.4461 32.877 17.6335 31.9166 17.6335C29.2467 17.6335 27.6896 16.3565 27.6896 13.7463V10.3285H26.1719V7.66055H27.6896V5.01184H31.3396V7.66055H33.721V10.3285H31.3396V13.7095C31.3396 14.461 31.7822 14.8744 32.4344 14.8744C32.8376 14.8744 33.2408 14.7623 33.549 14.5556L34.4521 17.0537V17.0519Z" fill="#002859"/>
<path d="M46.4593 11.6424V17.4654H42.8093V12.2258C42.8093 10.7613 42.1553 10.1411 41.0999 10.1411C39.928 10.1411 39.0249 10.8541 39.0249 12.5446V17.4654H35.3749V7.28573H38.8529V8.39461C39.6789 7.54849 40.8508 7.11755 42.1571 7.11755C44.5976 7.11755 46.4611 8.48921 46.4611 11.6442" fill="#002859"/>
<path d="M47.7656 12.3572C47.7656 9.29503 50.2437 7.11755 53.6447 7.11755C57.0456 7.11755 59.5237 9.29678 59.5237 12.3572C59.5237 15.4175 57.0832 17.6353 53.6447 17.6353C50.2061 17.6353 47.7656 15.4386 47.7656 12.3572ZM55.8343 12.3572C55.8343 10.8173 54.8936 9.95371 53.6447 9.95371C52.3957 9.95371 51.455 10.8173 51.455 12.3572C51.455 13.897 52.4154 14.7992 53.6447 14.7992C54.8739 14.7992 55.8343 13.9163 55.8343 12.3572Z" fill="#002859"/>
<path d="M71.4163 7.28577L67.1123 17.4654H63.3458L59.0615 7.28577H62.8082L65.3061 13.5029L67.9383 7.28577H71.4163Z" fill="#002859"/>
<path d="M70.9362 12.3572C70.9362 9.29503 73.4143 7.11755 76.8152 7.11755C80.2162 7.11755 82.6943 9.29678 82.6943 12.3572C82.6943 15.4175 80.2538 17.6353 76.8152 17.6353C73.3767 17.6353 70.9362 15.4386 70.9362 12.3572ZM79.0049 12.3572C79.0049 10.8173 78.0642 9.95371 76.8152 9.95371C75.5663 9.95371 74.6256 10.8173 74.6256 12.3572C74.6256 13.897 75.586 14.7992 76.8152 14.7992C78.0445 14.7992 79.0049 13.9163 79.0049 12.3572Z" fill="#002859"/>
<path d="M88 15.4122C88 14.2228 87.0145 13.2593 85.7978 13.2593C84.5811 13.2593 83.5956 14.2228 83.5956 15.4122C83.5956 16.6017 84.5811 17.5652 85.7978 17.5652C87.0145 17.5652 88 16.6017 88 15.4122Z" fill="#1ED4E9"/>
<path d="M62.4176 24.8562C62.4176 27.4015 60.52 29.2707 58.1888 29.2707C57.1388 29.2707 56.2912 28.9606 55.8021 28.2301L55.0549 31.8721H52.3223L54.4367 21.5242H57.0259L56.8682 22.2407C57.4721 21.6924 58.2193 21.3964 59.126 21.3964C60.8085 21.3964 62.4194 22.6471 62.4194 24.8544L62.4176 24.8562ZM59.6563 24.9963C59.6563 24.1099 59.1098 23.5335 58.1745 23.5335C57.0958 23.5335 56.3199 24.3919 56.3199 25.6707C56.3199 26.5571 56.8664 27.1195 57.8018 27.1195C58.8805 27.1195 59.6563 26.2611 59.6563 24.9963Z" fill="#1ED4E9"/>
<path d="M72.6706 21.5242L71.1171 29.1445H68.5278L68.6855 28.428C68.0817 28.9763 67.3345 29.2724 66.4278 29.2724C64.7452 29.2724 63.1343 28.0216 63.1343 25.7986C63.1343 23.2672 65.0319 21.3981 67.3631 21.3981C68.4132 21.3981 69.2607 21.7081 69.7499 22.4386L69.9362 21.5242H72.6688H72.6706ZM69.2338 24.998C69.2338 24.1116 68.6873 23.5353 67.752 23.5353C66.6733 23.5353 65.8974 24.3936 65.8974 25.6724C65.8974 26.5589 66.4439 27.1212 67.3793 27.1212C68.4723 27.1212 69.2338 26.2628 69.2338 24.998Z" fill="#1ED4E9"/>
<path d="M82.6387 21.5243L77.6484 29.4827C76.4263 31.4237 75.4193 32 73.7797 32C72.9591 32 72.0542 31.7337 71.5793 31.3396L72.8014 29.4564C73.1185 29.7244 73.5343 29.8926 74.0091 29.8926C74.5126 29.8926 74.8298 29.6824 75.1595 29.2042L73.3909 21.5278H76.1092L77.0875 26.2103L79.9635 21.5278H82.6387V21.5243Z" fill="#1ED4E9"/>
</svg>
