<svg width="32" height="32" viewBox="0 0 32 32" fill="none" xmlns="http://www.w3.org/2000/svg">
<g clip-path="url(#clip0_4710_5514)">
<path d="M16 31.0417C24.8366 31.0417 32 24.0953 32 15.5265C32 6.95772 24.8366 0.0113525 16 0.0113525C7.16344 0.0113525 0 6.95772 0 15.5265C0 24.0953 7.16344 31.0417 16 31.0417Z" fill="#0052B4"/>
<path d="M16 6.08252L16.5181 7.62852H18.1944L16.8382 8.58397L17.3562 10.13L16 9.17446L14.6438 10.13L15.1619 8.58397L13.8057 7.62852H15.482L16 6.08252Z" fill="#FFDA44"/>
<path d="M9.11315 8.84853L10.6069 9.58647L11.7922 8.43713L11.5299 10.0426L13.0236 10.7806L11.3679 11.0349L11.1057 12.6405L10.3446 11.192L8.68896 11.4464L9.87428 10.297L9.11315 8.84853Z" fill="#FFDA44"/>
<path d="M6.26074 15.5266L7.85505 15.0242V13.3987L8.8403 14.7138L10.4347 14.2115L9.44924 15.5266L10.4347 16.8417L8.8403 16.3393L7.85505 17.6544V16.0289L6.26074 15.5266Z" fill="#FFDA44"/>
<path d="M9.11315 22.2045L9.87422 20.756L8.68896 19.6066L10.3447 19.861L11.1056 18.4126L11.3679 20.0181L13.0235 20.2724L11.53 21.0104L11.7922 22.6159L10.6069 21.4665L9.11315 22.2045Z" fill="#FFDA44"/>
<path d="M16 24.9706L15.4819 23.4246H13.8057L15.1619 22.4691L14.6438 20.9232L16 21.8786L17.3562 20.9232L16.8382 22.4691L18.1944 23.4246H16.518L16 24.9706Z" fill="#FFDA44"/>
<path d="M22.8864 22.2045L21.3927 21.4665L20.2073 22.6159L20.4696 21.0104L18.9761 20.2724L20.6317 20.0181L20.8939 18.4126L21.6549 19.861L23.3106 19.6066L22.1253 20.7561L22.8864 22.2045Z" fill="#FFDA44"/>
<path d="M25.7388 15.5266L24.1444 16.0289V17.6544L23.1591 16.3393L21.5649 16.8417L22.5503 15.5266L21.5649 14.2115L23.1592 14.7138L24.1444 13.3987V15.0243L25.7388 15.5266Z" fill="#FFDA44"/>
<path d="M22.8864 8.84859L22.1253 10.2971L23.3106 11.4465L21.6549 11.192L20.8939 12.6405L20.6317 11.035L18.9761 10.7806L20.4696 10.0427L20.2073 8.43726L21.3928 9.58659L22.8864 8.84859Z" fill="#FFDA44"/>
</g>
<defs>
<clipPath id="clip0_4710_5514">
<rect width="32" height="32" fill="white"/>
</clipPath>
</defs>
</svg>
