<svg width="20" height="20" viewBox="0 0 20 20" fill="none" xmlns="http://www.w3.org/2000/svg">
<path opacity="0.4" d="M14.0001 7.5H6.00008C3.33341 7.5 1.66675 9.16667 1.66675 11.8333V13.9917C1.66675 16.6667 3.33341 18.3333 6.00008 18.3333H13.9917C16.6584 18.3333 18.3251 16.6667 18.3251 14V11.8333C18.3334 9.16667 16.6667 7.5 14.0001 7.5Z" fill="#035AC5"/>
<path d="M13.2331 4.64198L10.4415 1.85032C10.1998 1.60865 9.79979 1.60865 9.55812 1.85032L6.76646 4.64198C6.52479 4.88365 6.52479 5.28365 6.76646 5.52532C7.00812 5.76698 7.40812 5.76698 7.64979 5.52532L9.37479 3.80032V12.7087C9.37479 13.0503 9.65812 13.3337 9.99979 13.3337C10.3415 13.3337 10.6248 13.0503 10.6248 12.7087V3.80032L12.3498 5.52532C12.4748 5.65032 12.6331 5.70865 12.7915 5.70865C12.9498 5.70865 13.1081 5.65032 13.2331 5.52532C13.4831 5.28365 13.4831 4.89198 13.2331 4.64198Z" fill="#035AC5"/>
</svg>
