<svg width="32" height="32" viewBox="0 0 32 32" fill="none" xmlns="http://www.w3.org/2000/svg">
<g clip-path="url(#clip0_4710_5563)">
<path d="M16 31.4375C24.8366 31.4375 32 24.4912 32 15.9224C32 7.3536 24.8366 0.407227 16 0.407227C7.16344 0.407227 0 7.3536 0 15.9224C0 24.4912 7.16344 31.4375 16 31.4375Z" fill="#F0F0F0"/>
<path d="M3.30758 6.47632C2.05077 8.06195 1.10308 9.88953 0.55127 11.8749H8.87489L3.30758 6.47632Z" fill="#0052B4"/>
<path d="M31.449 11.875C30.8972 9.88965 29.9494 8.06208 28.6927 6.47644L23.1255 11.875H31.449Z" fill="#0052B4"/>
<path d="M0.55127 19.9698C1.10314 21.9552 2.05083 23.7828 3.30758 25.3683L8.87471 19.9698H0.55127Z" fill="#0052B4"/>
<path d="M25.7411 3.6145C24.1059 2.39577 22.2213 1.4768 20.1738 0.94165V9.01298L25.7411 3.6145Z" fill="#0052B4"/>
<path d="M6.25879 28.2301C7.89398 29.4488 9.77866 30.3678 11.826 30.9029V22.8317L6.25879 28.2301Z" fill="#0052B4"/>
<path d="M11.826 0.94165C9.7786 1.4768 7.89391 2.39577 6.25879 3.61444L11.826 9.01292V0.94165Z" fill="#0052B4"/>
<path d="M20.1738 30.9029C22.2212 30.3678 24.1059 29.4488 25.741 28.2301L20.1738 22.8317V30.9029Z" fill="#0052B4"/>
<path d="M23.1255 19.9698L28.6927 25.3684C29.9494 23.7828 30.8972 21.9552 31.449 19.9698H23.1255Z" fill="#0052B4"/>
<path d="M31.8646 13.8987H18.0871H18.087V0.53856C17.4038 0.452317 16.7073 0.407227 16 0.407227C15.2926 0.407227 14.5962 0.452317 13.9131 0.53856V13.8986V13.8986H0.135438C0.0465 14.5611 0 15.2365 0 15.9224C0 16.6084 0.0465 17.2837 0.135438 17.9461H13.9129H13.913V31.3062C14.5962 31.3924 15.2926 31.4375 16 31.4375C16.7073 31.4375 17.4038 31.3925 18.0869 31.3062V17.9462V17.9461H31.8646C31.9535 17.2837 32 16.6084 32 15.9224C32 15.2365 31.9535 14.5611 31.8646 13.8987Z" fill="#D80027"/>
<path d="M20.1738 19.9699L27.3136 26.8933C27.642 26.575 27.9552 26.2422 28.2541 25.8972L22.1415 19.9698H20.1738V19.9699Z" fill="#D80027"/>
<path d="M11.8258 19.9698H11.8257L4.68604 26.8932C5.01429 27.2116 5.35747 27.5154 5.71322 27.8052L11.8258 21.8777V19.9698Z" fill="#D80027"/>
<path d="M11.8259 11.875V11.8749L4.68611 4.95142C4.35773 5.26972 4.04448 5.60251 3.74561 5.94748L9.85829 11.8749H11.8259V11.875Z" fill="#D80027"/>
<path d="M20.1738 11.875L27.3136 4.95149C26.9854 4.63307 26.6422 4.32931 26.2865 4.03955L20.1738 9.96701V11.875Z" fill="#D80027"/>
</g>
<defs>
<clipPath id="clip0_4710_5563">
<rect width="32" height="32" fill="white"/>
</clipPath>
</defs>
</svg>
