<svg width="32" height="32" viewBox="0 0 32 32" fill="none" xmlns="http://www.w3.org/2000/svg">
<g clip-path="url(#clip0_4710_8005)">
<path d="M16 31.0417C24.8366 31.0417 32 24.0953 32 15.5265C32 6.95772 24.8366 0.0113525 16 0.0113525C7.16344 0.0113525 0 6.95772 0 15.5265C0 24.0953 7.16344 31.0417 16 31.0417Z" fill="#F0F0F0"/>
<path d="M16 11.4791H31.4488C31.0476 10.0358 30.4379 8.67576 29.6516 7.43164H16V11.4791Z" fill="#338AF3"/>
<path d="M6.0402 27.6688H25.9598C27.42 26.541 28.6722 25.1712 29.6516 23.6213H2.34839C3.32783 25.1712 4.58008 26.541 6.0402 27.6688Z" fill="#338AF3"/>
<path d="M5.5652 3.76526C4.30733 4.81562 3.21989 6.05253 2.34839 7.43168H5.5652V3.76526Z" fill="#338AF3"/>
<path d="M16 15.5265C16 13.9461 16 12.6235 16 11.479H9.73913V15.5265H5.56519V11.479H0.551188C0.1925 12.7695 0 14.126 0 15.5265C0 16.9269 0.1925 18.2834 0.551188 19.5739H31.4489C31.8075 18.2834 32 16.9269 32 15.5265H16Z" fill="#338AF3"/>
<path d="M16 0.0113525C13.7782 0.0113525 11.6623 0.450928 9.73914 1.24456V7.43166H16C16 6.01881 16 4.81717 16 3.3842H25.9598C23.2266 1.27341 19.7656 0.0113525 16 0.0113525Z" fill="#338AF3"/>
</g>
<defs>
<clipPath id="clip0_4710_8005">
<rect width="32" height="32" fill="white"/>
</clipPath>
</defs>
</svg>
