<svg width="32" height="32" viewBox="0 0 32 32" fill="none" xmlns="http://www.w3.org/2000/svg">
<g clip-path="url(#clip0_4767_8060)">
<path d="M16 31.0417C24.8366 31.0417 32 24.0953 32 15.5265C32 6.95772 24.8366 0.0113525 16 0.0113525C7.16344 0.0113525 0 6.95772 0 15.5265C0 24.0953 7.16344 31.0417 16 31.0417Z" fill="#F0F0F0"/>
<path d="M32 15.5265C32 9.37539 28.3085 4.06048 22.9565 1.5509V29.5021C28.3085 26.9926 32 21.6776 32 15.5265Z" fill="#338AF3"/>
<path d="M0 15.5265C0 21.6776 3.69156 26.9926 9.0435 29.5022V1.5509C3.69156 4.06048 0 9.37539 0 15.5265Z" fill="#338AF3"/>
<path d="M20.1812 18.1501L17.4758 15.5267L20.051 13.0294L19.9343 11.7105L19.197 10.9955L16 14.0956L12.803 10.9955L12.0658 11.7105L11.9491 13.0294L14.5243 15.5267L11.8188 18.1501L13.2946 19.581L16 16.9577L18.7055 19.581L20.1812 18.1501Z" fill="#ACABB1"/>
<path d="M19.9352 11.7106L18.4595 13.1415C19.0889 13.7519 19.4783 14.5951 19.4783 15.5265C19.4783 17.3893 17.921 18.8994 16.0001 18.8994C14.0791 18.8994 12.5218 17.3893 12.5218 15.5265C12.5218 14.5951 12.9111 13.7519 13.5406 13.1415L12.0649 11.7106C11.0577 12.6871 10.4348 14.0362 10.4348 15.5265C10.4348 18.507 12.9264 20.9231 16 20.9231C19.0736 20.9231 21.5652 18.5069 21.5652 15.5265C21.5652 14.0363 20.9423 12.6871 19.9352 11.7106Z" fill="#6DA544"/>
</g>
<defs>
<clipPath id="clip0_4767_8060">
<rect width="32" height="32" fill="white"/>
</clipPath>
</defs>
</svg>
