<svg width="32" height="32" viewBox="0 0 32 32" fill="none" xmlns="http://www.w3.org/2000/svg">
<g clip-path="url(#clip0_4710_7982)">
<path d="M16 31.0417C24.8365 31.0417 32 24.0953 32 15.5265C32 6.95772 24.8365 0.0113525 16 0.0113525C7.16344 0.0113525 0 6.95772 0 15.5265C0 24.0953 7.16344 31.0417 16 31.0417Z" fill="#F0F0F0"/>
<path d="M9.7392 10.13H31.0048C28.7442 4.22178 22.8794 0.0113525 16.0001 0.0113525C11.5817 0.0113525 7.58214 1.74826 4.68689 4.55614L9.7392 10.13Z" fill="#6DA544"/>
<path d="M9.7392 20.9231H31.0048C28.7442 26.8313 22.8794 31.0417 16.0001 31.0417C11.5817 31.0417 7.58214 29.3048 4.68689 26.4969L9.7392 20.9231Z" fill="#D80027"/>
<path d="M4.68628 4.55566C-1.56209 10.6147 -1.56209 20.4384 4.68628 26.4975C7.26834 23.9937 9.75165 21.5856 16 15.5266L4.68628 4.55566Z" fill="#0052B4"/>
<path d="M18.7826 12.8282V16.2011C18.7826 18.2666 21.5652 18.8995 21.5652 18.8995C21.5652 18.8995 24.3478 18.2666 24.3478 16.2011V12.8282H18.7826Z" fill="#DEDDE0"/>
<path d="M20.8696 15.594H22.2609V17.5502H20.8696V15.594Z" fill="#786145"/>
<path d="M22.9565 14.852C22.9565 14.1068 22.3336 13.5028 21.5652 13.5028C20.7968 13.5028 20.1739 14.1068 20.1739 14.852C19.7897 14.852 19.4783 15.154 19.4783 15.5265C19.4783 15.8991 19.7897 16.2011 20.1739 16.2011H22.9565C23.3407 16.2011 23.6521 15.8991 23.6521 15.5265C23.6521 15.154 23.3408 14.852 22.9565 14.852Z" fill="#6DA544"/>
</g>
<defs>
<clipPath id="clip0_4710_7982">
<rect width="32" height="32" fill="white"/>
</clipPath>
</defs>
</svg>
