<svg width="32" height="32" viewBox="0 0 32 32" fill="none" xmlns="http://www.w3.org/2000/svg">
<g clip-path="url(#clip0_4767_8104)">
<path d="M16 32C24.8366 32 32 24.8366 32 16C32 7.16344 24.8366 0 16 0C7.16344 0 0 7.16344 0 16C0 24.8366 7.16344 32 16 32Z" fill="#D80027"/>
<path d="M17.652 12.1043C17.2883 13.6167 16.6423 13.3283 16.3252 14.6473C14.4575 14.1982 13.3073 12.3201 13.7563 10.4523C14.2052 8.5846 16.0835 7.43435 17.9513 7.88342C17.3171 10.5214 17.9773 10.7516 17.652 12.1043Z" fill="#F0F0F0"/>
<path d="M12.8055 13.225C14.1315 14.0381 13.6575 14.5635 14.8139 15.2727C13.8097 16.9103 11.6681 17.4237 10.0305 16.4195C8.39291 15.4154 7.87935 13.2737 8.8836 11.6361C11.1965 13.0544 11.6193 12.4977 12.8055 13.225Z" fill="#F0F0F0"/>
<path d="M12.3736 18.1808C13.5568 17.1709 13.9099 17.7841 14.9417 16.9034C16.1889 18.3645 16.0154 20.56 14.5544 21.8072C13.0933 23.0544 10.8978 22.8807 9.65076 21.4198C11.7141 19.6583 11.3153 19.084 12.3736 18.1808Z" fill="#F0F0F0"/>
<path d="M16.9534 20.1229C16.3584 18.6856 17.0507 18.5391 16.532 17.2858C18.3069 16.5512 20.3414 17.3946 21.076 19.1695C21.8106 20.9445 20.9671 22.9789 19.1922 23.7135C18.1549 21.2067 17.4855 21.4085 16.9534 20.1229Z" fill="#F0F0F0"/>
<path d="M20.2156 16.3673C18.6648 16.489 18.7392 15.7852 17.387 15.8913C17.2369 13.9764 18.6677 12.302 20.5828 12.1517C22.4978 12.0017 24.1722 13.4325 24.3223 15.3476C21.6175 15.5597 21.6025 16.2586 20.2156 16.3673Z" fill="#F0F0F0"/>
</g>
<defs>
<clipPath id="clip0_4767_8104">
<rect width="32" height="32" fill="white"/>
</clipPath>
</defs>
</svg>
