<svg width="20" height="20" viewBox="0 0 20 20" fill="none" xmlns="http://www.w3.org/2000/svg">
<path opacity="0.4" d="M10 18.3333C14.6024 18.3333 18.3333 14.6023 18.3333 9.99996C18.3333 5.39759 14.6024 1.66663 10 1.66663C5.39763 1.66663 1.66667 5.39759 1.66667 9.99996C1.66667 14.6023 5.39763 18.3333 10 18.3333Z" fill="#035AC5"/>
<path d="M10 11.4583C10.3417 11.4583 10.625 11.175 10.625 10.8333V6.66663C10.625 6.32496 10.3417 6.04163 10 6.04163C9.65833 6.04163 9.375 6.32496 9.375 6.66663V10.8333C9.375 11.175 9.65833 11.4583 10 11.4583Z" fill="#035AC5"/>
<path d="M10.7667 13.0167C10.725 12.9167 10.6667 12.825 10.5917 12.7417C10.5083 12.6667 10.4167 12.6083 10.3167 12.5667C10.1167 12.4833 9.88333 12.4833 9.68333 12.5667C9.58333 12.6083 9.49167 12.6667 9.40833 12.7417C9.33333 12.825 9.275 12.9167 9.23333 13.0167C9.19167 13.1167 9.16667 13.225 9.16667 13.3333C9.16667 13.4417 9.19167 13.55 9.23333 13.65C9.275 13.7583 9.33333 13.8417 9.40833 13.925C9.49167 14 9.58333 14.0583 9.68333 14.1C9.78333 14.1417 9.89167 14.1667 10 14.1667C10.1083 14.1667 10.2167 14.1417 10.3167 14.1C10.4167 14.0583 10.5083 14 10.5917 13.925C10.6667 13.8417 10.725 13.7583 10.7667 13.65C10.8083 13.55 10.8333 13.4417 10.8333 13.3333C10.8333 13.225 10.8083 13.1167 10.7667 13.0167Z" fill="#035AC5"/>
</svg>
