<svg width="20" height="20" viewBox="0 0 20 20" fill="none" xmlns="http://www.w3.org/2000/svg">
<path opacity="0.4" d="M9.16674 6.24996V13.75C9.16674 14.2083 8.79174 14.5833 8.33341 14.5833H6.25007C4.98341 14.5833 3.84174 14.0666 3.00841 13.2416C2.22507 12.45 1.71674 11.375 1.66674 10.1833C1.56674 7.56663 3.85007 5.41663 6.47507 5.41663H8.33341C8.79174 5.41663 9.16674 5.79163 9.16674 6.24996Z" fill="#035AC5"/>
<path opacity="0.4" d="M18.3332 9.81663C18.4416 12.4416 16.1582 14.5833 13.5332 14.5833H11.6749C11.2166 14.5833 10.8416 14.2083 10.8416 13.75V6.24996C10.8416 5.79163 11.2166 5.41663 11.6749 5.41663H13.7582C15.0249 5.41663 16.1666 5.93329 16.9999 6.75829C17.7749 7.54996 18.2832 8.62496 18.3332 9.81663Z" fill="#035AC5"/>
<path d="M13.3334 10.625H6.66675C6.32508 10.625 6.04175 10.3417 6.04175 10C6.04175 9.65833 6.32508 9.375 6.66675 9.375H13.3334C13.6751 9.375 13.9584 9.65833 13.9584 10C13.9584 10.3417 13.6751 10.625 13.3334 10.625Z" fill="#035AC5"/>
</svg>
