<svg width="20" height="20" viewBox="0 0 20 20" fill="none" xmlns="http://www.w3.org/2000/svg">
<path opacity="0.4" d="M1.66663 8.12496C1.32496 8.12496 1.04163 7.84163 1.04163 7.49996V5.41663C1.04163 2.99996 3.00829 1.04163 5.41663 1.04163H7.49996C7.84163 1.04163 8.12496 1.32496 8.12496 1.66663C8.12496 2.00829 7.84163 2.29163 7.49996 2.29163H5.41663C3.69163 2.29163 2.29163 3.69163 2.29163 5.41663V7.49996C2.29163 7.84163 2.00829 8.12496 1.66663 8.12496Z" fill="white"/>
<path d="M18.3333 8.12496C17.9917 8.12496 17.7083 7.84163 17.7083 7.49996V5.41663C17.7083 3.69163 16.3083 2.29163 14.5833 2.29163H12.5C12.1583 2.29163 11.875 2.00829 11.875 1.66663C11.875 1.32496 12.1583 1.04163 12.5 1.04163H14.5833C16.9917 1.04163 18.9583 2.99996 18.9583 5.41663V7.49996C18.9583 7.84163 18.675 8.12496 18.3333 8.12496Z" fill="white"/>
<path opacity="0.4" d="M14.5834 18.9584H13.3334C12.9917 18.9584 12.7084 18.675 12.7084 18.3334C12.7084 17.9917 12.9917 17.7084 13.3334 17.7084H14.5834C16.3084 17.7084 17.7084 16.3084 17.7084 14.5834V13.3334C17.7084 12.9917 17.9917 12.7084 18.3334 12.7084C18.675 12.7084 18.9584 12.9917 18.9584 13.3334V14.5834C18.9584 17 16.9917 18.9584 14.5834 18.9584Z" fill="white"/>
<path d="M7.49996 18.9583H5.41663C3.00829 18.9583 1.04163 17 1.04163 14.5833V12.5C1.04163 12.1583 1.32496 11.875 1.66663 11.875C2.00829 11.875 2.29163 12.1583 2.29163 12.5V14.5833C2.29163 16.3083 3.69163 17.7083 5.41663 17.7083H7.49996C7.84163 17.7083 8.12496 17.9917 8.12496 18.3333C8.12496 18.675 7.84163 18.9583 7.49996 18.9583Z" fill="white"/>
<path d="M7.5 4.375H5.83333C4.88333 4.375 4.375 4.875 4.375 5.83333V7.5C4.375 8.45833 4.88333 8.95833 5.83333 8.95833H7.5C8.45 8.95833 8.95833 8.45833 8.95833 7.5V5.83333C8.95833 4.875 8.45 4.375 7.5 4.375Z" fill="white"/>
<path opacity="0.4" d="M14.1666 4.375H12.5C11.55 4.375 11.0416 4.875 11.0416 5.83333V7.5C11.0416 8.45833 11.55 8.95833 12.5 8.95833H14.1666C15.1166 8.95833 15.625 8.45833 15.625 7.5V5.83333C15.625 4.875 15.1166 4.375 14.1666 4.375Z" fill="white"/>
<path opacity="0.4" d="M7.5 11.0416H5.83333C4.88333 11.0416 4.375 11.5416 4.375 12.5V14.1666C4.375 15.125 4.88333 15.625 5.83333 15.625H7.5C8.45 15.625 8.95833 15.125 8.95833 14.1666V12.5C8.95833 11.5416 8.45 11.0416 7.5 11.0416Z" fill="white"/>
<path d="M14.1666 11.0416H12.5C11.55 11.0416 11.0416 11.5416 11.0416 12.5V14.1666C11.0416 15.125 11.55 15.625 12.5 15.625H14.1666C15.1166 15.625 15.625 15.125 15.625 14.1666V12.5C15.625 11.5416 15.1166 11.0416 14.1666 11.0416Z" fill="white"/>
</svg>
