<svg width="204" height="159" viewBox="0 0 204 159" fill="none" xmlns="http://www.w3.org/2000/svg">
<path d="M114.606 35.5032L127.276 56.9685L118.205 60.1674L114.606 35.5032Z" fill="url(#paint0_linear_4767_8611)"/>
<path d="M39.4774 45.7099L59.3265 43.8725L58.7349 51.3916L39.4774 45.7099Z" fill="#EAB308"/>
<circle cx="83.4533" cy="75.5258" r="2.0824" fill="url(#paint1_linear_4767_8611)"/>
<circle cx="96.545" cy="9.77984" r="4.85894" fill="url(#paint2_linear_4767_8611)"/>
<rect x="4.7439" y="150.408" width="13.8827" height="6.94134" transform="rotate(-45.5869 4.7439 150.408)" fill="url(#paint3_linear_4767_8611)"/>
<rect x="144.388" y="8.60486" width="4.16481" height="6.94134" transform="rotate(21.9912 144.388 8.60486)" fill="#EAB308"/>
<rect x="172.132" y="52.5045" width="16.6592" height="5.55308" transform="rotate(-116.768 172.132 52.5045)" fill="#EAB308"/>
<path d="M43.0575 122.248C43.0575 122.248 51.9344 117.827 53.9482 120.144C55.0545 121.418 55.89 122.96 54.8992 124.212C54.1354 125.178 53.0327 125.301 51.7406 125.074C49.0045 124.594 49.046 120.794 50.1444 118.441C51.6608 115.192 59.7105 117.11 59.7105 117.11" stroke="url(#paint4_linear_4767_8611)" stroke-width="1.2"/>
<path d="M36.5403 86.1934C36.5403 86.1934 35.8645 82.1788 37.8039 81.3787C39.4333 80.7064 40.8458 83.6792 42.1846 82.6014C43.5408 81.5098 40.1555 79.7803 41.258 78.4745C42.4183 77.1003 46.1442 78.4745 46.1442 78.4745" stroke="url(#paint5_linear_4767_8611)" stroke-width="1.2"/>
<path d="M5.60912 92.2158C5.60912 95.6661 11.1392 98.463 7.29102 98.463C3.44279 98.463 0.323181 95.6661 0.323181 92.2158C0.323181 88.7656 3.44279 85.9686 7.29102 85.9686C11.1392 85.9686 5.60912 88.7656 5.60912 92.2158Z" fill="url(#paint6_linear_4767_8611)"/>
<path d="M194.908 154.16C197.196 154.39 199.421 150.908 199.164 153.461C198.907 156.014 196.844 157.896 194.555 157.666C192.266 157.436 190.619 155.179 190.876 152.627C191.133 150.074 192.619 153.929 194.908 154.16Z" fill="url(#paint7_linear_4767_8611)"/>
<path d="M163.466 113.23L165.024 118.026H170.067L165.987 120.991L167.546 125.787L163.466 122.823L159.385 125.787L160.944 120.991L156.864 118.026H161.907L163.466 113.23Z" fill="url(#paint8_linear_4767_8611)"/>
<path d="M56.0637 0.5L56.9988 3.37781H60.0247L57.5767 5.15639L58.5117 8.03421L56.0637 6.25562L53.6157 8.03421L54.5508 5.15639L52.1028 3.37781H55.1287L56.0637 0.5Z" fill="url(#paint9_linear_4767_8611)"/>
<path d="M142.638 93.0921L143.329 87.1291L148.148 90.1845L148.698 85.1822L153.094 88.2106L154.463 82.8027" stroke="url(#paint10_linear_4767_8611)"/>
<path opacity="0.4" d="M102 150.167C125.012 150.167 143.667 131.512 143.667 108.5C143.667 85.4882 125.012 66.8334 102 66.8334C78.9881 66.8334 60.3333 85.4882 60.3333 108.5C60.3333 131.512 78.9881 150.167 102 150.167Z" fill="#22C55E"/>
<path d="M96.0833 123.417C95.25 123.417 94.4583 123.083 93.875 122.5L82.0833 110.708C80.875 109.5 80.875 107.5 82.0833 106.292C83.2916 105.083 85.2916 105.083 86.5 106.292L96.0833 115.875L117.5 94.4584C118.708 93.25 120.708 93.25 121.917 94.4584C123.125 95.6667 123.125 97.6667 121.917 98.875L98.2916 122.5C97.7083 123.083 96.9166 123.417 96.0833 123.417Z" fill="#22C55E"/>
<defs>
<linearGradient id="paint0_linear_4767_8611" x1="109.369" y1="37.3501" x2="133.608" y2="38.2613" gradientUnits="userSpaceOnUse">
<stop stop-color="#00A2DF"/>
<stop offset="1" stop-color="#035AC5"/>
</linearGradient>
<linearGradient id="paint1_linear_4767_8611" x1="81.3708" y1="73.4434" x2="85.5357" y2="78.2799" gradientUnits="userSpaceOnUse">
<stop stop-color="#A65FF1"/>
<stop offset="1" stop-color="#002859"/>
</linearGradient>
<linearGradient id="paint2_linear_4767_8611" x1="91.686" y1="4.9209" x2="101.404" y2="16.2062" gradientUnits="userSpaceOnUse">
<stop stop-color="#F15FE9"/>
<stop offset="1" stop-color="#FF4949"/>
</linearGradient>
<linearGradient id="paint3_linear_4767_8611" x1="4.7439" y1="150.408" x2="9.84288" y2="162.251" gradientUnits="userSpaceOnUse">
<stop stop-color="#F15FE9"/>
<stop offset="1" stop-color="#FF4949"/>
</linearGradient>
<linearGradient id="paint4_linear_4767_8611" x1="47.7556" y1="111.756" x2="51.9144" y2="129.832" gradientUnits="userSpaceOnUse">
<stop stop-color="#FFD43B"/>
<stop offset="1" stop-color="#FF5656"/>
</linearGradient>
<linearGradient id="paint5_linear_4767_8611" x1="36.4263" y1="77.8638" x2="44.4752" y2="88.7687" gradientUnits="userSpaceOnUse">
<stop stop-color="#C6F5FF"/>
<stop offset="1" stop-color="#15BBE0"/>
</linearGradient>
<linearGradient id="paint6_linear_4767_8611" x1="0.323181" y1="85.9686" x2="12.5548" y2="95.4382" gradientUnits="userSpaceOnUse">
<stop stop-color="#A65FF1"/>
<stop offset="1" stop-color="#002859"/>
</linearGradient>
<linearGradient id="paint7_linear_4767_8611" x1="190.411" y1="157.249" x2="197.509" y2="149.768" gradientUnits="userSpaceOnUse">
<stop stop-color="#C6F5FF"/>
<stop offset="1" stop-color="#15BBE0"/>
</linearGradient>
<linearGradient id="paint8_linear_4767_8611" x1="156.524" y1="113.23" x2="170.407" y2="129.352" gradientUnits="userSpaceOnUse">
<stop stop-color="#FFD43B"/>
<stop offset="1" stop-color="#FF5656"/>
</linearGradient>
<linearGradient id="paint9_linear_4767_8611" x1="51.8989" y1="0.5" x2="60.2285" y2="10.1731" gradientUnits="userSpaceOnUse">
<stop stop-color="#00A2DF"/>
<stop offset="1" stop-color="#035AC5"/>
</linearGradient>
<linearGradient id="paint10_linear_4767_8611" x1="140.315" y1="88.7367" x2="147.947" y2="96.2521" gradientUnits="userSpaceOnUse">
<stop stop-color="#C6F5FF"/>
<stop offset="1" stop-color="#15BBE0"/>
</linearGradient>
</defs>
</svg>
