<svg width="32" height="32" viewBox="0 0 32 32" fill="none" xmlns="http://www.w3.org/2000/svg">
<g clip-path="url(#clip0_4710_7960)">
<path d="M0 16C0 17.9571 0.352063 19.8318 0.995188 21.5651L16 22.9565L31.0048 21.5651C31.6479 19.8318 32 17.9571 32 16C32 14.0428 31.6479 12.1681 31.0048 10.4348L16 9.04346L0.995188 10.4348C0.352063 12.1681 0 14.0428 0 16H0Z" fill="#FFDA44"/>
<path d="M31.0049 10.4348C28.7442 4.34206 22.8795 0 16.0001 0C9.12061 0 3.25593 4.34206 0.995239 10.4348H31.0049Z" fill="#D80027"/>
<path d="M0.995239 21.5652C3.25593 27.6579 9.12061 32 16.0001 32C22.8795 32 28.7442 27.6579 31.0049 21.5652H0.995239Z" fill="#D80027"/>
</g>
<defs>
<clipPath id="clip0_4710_7960">
<rect width="32" height="32" fill="white"/>
</clipPath>
</defs>
</svg>
