<svg width="32" height="32" viewBox="0 0 32 32" fill="none" xmlns="http://www.w3.org/2000/svg">
<g clip-path="url(#clip0_4710_5539)">
<path d="M16 31.999C24.8366 31.999 32 24.8358 32 15.9995C32 7.16323 24.8366 0 16 0C7.16344 0 0 7.16323 0 15.9995C0 24.8358 7.16344 31.999 16 31.999Z" fill="#F0F0F0"/>
<path d="M15.3047 15.9996H32.0003C32.0003 14.5555 31.8078 13.1565 31.4491 11.8257H15.3047V15.9996Z" fill="#D80027"/>
<path d="M15.3047 7.65221H29.6519C28.6725 6.05396 27.4202 4.64127 25.9601 3.47827H15.3047V7.65221Z" fill="#D80027"/>
<path d="M16.0003 31.9991C19.7658 31.9991 23.2269 30.6976 25.96 28.5209H6.04053C8.77365 30.6976 12.2347 31.9991 16.0003 31.9991Z" fill="#D80027"/>
<path d="M2.34846 24.3473H29.6517C30.438 23.0642 31.0478 21.6617 31.4489 20.1733H0.55127C0.952332 21.6617 1.56214 23.0642 2.34846 24.3473Z" fill="#D80027"/>
<path d="M7.4115 2.49855H8.86956L7.51331 3.48383L8.03137 5.07809L6.67519 4.09281L5.319 5.07809L5.7665 3.70082C4.57237 4.69548 3.52575 5.86082 2.66325 7.15928H3.13044L2.26712 7.78645C2.13262 8.01082 2.00362 8.23875 1.88 8.47005L2.29225 9.73883L1.52313 9.18003C1.33194 9.58508 1.15706 9.99926 0.999875 10.4221L1.45406 11.82H3.13044L1.77419 12.8053L2.29225 14.3996L0.936063 13.4143L0.123687 14.0045C0.042375 14.6581 0 15.3238 0 15.9995H16C16 7.16328 16 6.12156 16 0C12.8393 0 9.89281 0.916847 7.4115 2.49855ZM8.03137 14.3996L6.67519 13.4143L5.319 14.3996L5.83706 12.8053L4.48081 11.82H6.15719L6.67519 10.2258L7.19319 11.82H8.86956L7.51331 12.8053L8.03137 14.3996ZM7.51331 8.14456L8.03137 9.73883L6.67519 8.75355L5.319 9.73883L5.83706 8.14456L4.48081 7.15928H6.15719L6.67519 5.56502L7.19319 7.15928H8.86956L7.51331 8.14456ZM13.7705 14.3996L12.4143 13.4143L11.0581 14.3996L11.5762 12.8053L10.2199 11.82H11.8963L12.4143 10.2258L12.9323 11.82H14.6087L13.2524 12.8053L13.7705 14.3996ZM13.2524 8.14456L13.7705 9.73883L12.4143 8.75355L11.0581 9.73883L11.5762 8.14456L10.2199 7.15928H11.8963L12.4143 5.56502L12.9323 7.15928H14.6087L13.2524 8.14456ZM13.2524 3.48383L13.7705 5.07809L12.4143 4.09281L11.0581 5.07809L11.5762 3.48383L10.2199 2.49855H11.8963L12.4143 0.904285L12.9323 2.49855H14.6087L13.2524 3.48383Z" fill="#0052B4"/>
</g>
<defs>
<clipPath id="clip0_4710_5539">
<rect width="32" height="32" fill="white"/>
</clipPath>
</defs>
</svg>
