<svg width="20" height="20" viewBox="0 0 20 20" fill="none" xmlns="http://www.w3.org/2000/svg">
<path opacity="0.8" d="M10.75 2.09999L10.725 2.15833L8.30837 7.76666H5.93337C5.36671 7.76666 4.83337 7.87499 4.33337 8.09166L5.79171 4.60833L5.82504 4.53333L5.87504 4.39999C5.90004 4.34166 5.91671 4.29166 5.94171 4.24999C7.03337 1.72499 8.26671 1.14999 10.75 2.09999Z" fill="#035AC5"/>
<path d="M15.2418 7.93294C14.8668 7.82461 14.4751 7.76628 14.0668 7.76628H8.30847L10.7251 2.15794L10.7501 2.09961C10.8668 2.14128 10.9918 2.19961 11.1168 2.24128L12.9585 3.01628C13.9835 3.44128 14.7001 3.88294 15.1418 4.41628C15.2168 4.51628 15.2835 4.60794 15.3501 4.71628C15.4251 4.83294 15.4835 4.94961 15.5168 5.07461C15.5501 5.14961 15.5751 5.21628 15.5918 5.29128C15.8085 5.99961 15.6751 6.85794 15.2418 7.93294Z" fill="#035AC5"/>
<path opacity="0.4" d="M18.1335 11.8336V13.4586C18.1335 13.6253 18.1252 13.792 18.1168 13.9503C17.9585 16.867 16.3335 18.3336 13.2502 18.3336H6.75016C6.54182 18.3336 6.35015 18.317 6.15849 18.292C3.50849 18.117 2.09182 16.7003 1.90849 14.0503C1.88349 13.8503 1.86682 13.6586 1.86682 13.4586V11.8336C1.86682 10.1586 2.88349 8.71697 4.33349 8.09197C4.83349 7.8753 5.36682 7.76697 5.93349 7.76697H14.0668C14.4752 7.76697 14.8668 7.8253 15.2418 7.93364C16.9085 8.44197 18.1335 9.99197 18.1335 11.8336Z" fill="#035AC5"/>
<path opacity="0.6" d="M5.79182 4.60852L4.33349 8.09185C2.88349 8.71685 1.86682 10.1585 1.86682 11.8335V9.39185C1.86682 7.02519 3.55015 5.05019 5.79182 4.60852Z" fill="#035AC5"/>
<path opacity="0.6" d="M18.1334 9.39162V11.8333C18.1334 9.99162 16.9084 8.44162 15.2417 7.93328C15.675 6.85828 15.8084 5.99995 15.5917 5.29162C15.575 5.21662 15.55 5.14995 15.5167 5.07495C17.075 5.88328 18.1334 7.52495 18.1334 9.39162Z" fill="#035AC5"/>
<path d="M12.0833 12.2417H10.625V10.8334C10.625 10.4917 10.3416 10.2084 9.99996 10.2084C9.65829 10.2084 9.37496 10.4917 9.37496 10.8334V12.2417H7.91663C7.57496 12.2417 7.29163 12.525 7.29163 12.8667C7.29163 13.2084 7.57496 13.4917 7.91663 13.4917H9.37496V15C9.37496 15.3417 9.65829 15.625 9.99996 15.625C10.3416 15.625 10.625 15.3417 10.625 15V13.4917H12.0833C12.425 13.4917 12.7083 13.2084 12.7083 12.8667C12.7083 12.525 12.425 12.2417 12.0833 12.2417Z" fill="#035AC5"/>
</svg>
